<svg width="600px" height="600px" viewBox="0 0 15 15" version="1.1" xmlns="https://www.w3.org/2000/svg" xmlns:xlink="https://www.w3.org/1999/xlink">
    <defs>
        <linearGradient x1="92.8939968%" y1="79.6471884%" x2="0%" y2="0%" id="linearGradient-1">
            <stop stop-color="#FF6D31" offset="0%"></stop>
            <stop stop-color="#FB0389" offset="100%"></stop>
        </linearGradient>
    </defs>
    <g id="reckonsys-dark-hero" stroke="none" stroke-width="1" fill="none" fill-rule="evenodd">
        <g transform="translate(-17.000000, -15.000000)" fill-rule="nonzero">
            <g id="reckonsys-svg-logo" transform="translate(17.000000, 15.000000)">
                <path d="M8.75232443,1.21558465 C11.9094638,1.77238135 14.3047258,4.47638777 14.3047258,7.72819926 C14.3047258,10.913214 12.0068572,13.572698 8.94590196,14.2037976 L5.94583644,8.59906329 C7.98602469,8.24145132 9.51125542,6.24073818 9.51125542,3.95177558 C9.51125542,2.93285888 9.24452261,1.99704613 8.75232443,1.21558465 Z M6.28064479,14.2299572 C3.58028878,13.7289259 1.44837842,11.6548042 0.916470597,9.01768924 L0.916470597,8.99211747 L3.47648408,8.99211747 L6.28064479,14.2299572 Z M0.804764122,6.57697465 L3.98853499,6.57697465 C5.97839178,6.57697465 7.14387934,5.46356842 7.14387934,3.84912936 C7.14387934,2.17902 5.97839178,1.09344892 3.98853499,1.09344892 L0.804764122,1.09344892 L0.804764122,6.57697465 Z" fill="url(#linearGradient-1)"></path>
            </g>
        </g>
    </g>
</svg>
